<svg xmlns="http://www.w3.org/2000/svg" version="1.1" xmlns:xlink="http://www.w3.org/1999/xlink" xmlns:svgjs="http://svgjs.dev/svgjs" width="1000" height="308" viewBox="0 0 1000 308"><g transform="matrix(1,0,0,1,-0.6056348047761162,0.16125674989206118)"><svg viewBox="0 0 396 122" data-background-color="#0c1d36" preserveAspectRatio="xMidYMid meet" height="308" width="1000" xmlns="http://www.w3.org/2000/svg" xmlns:xlink="http://www.w3.org/1999/xlink"><g id="tight-bounds" transform="matrix(1,0,0,1,0.24008861730862918,-0.0635340334497414)"><svg viewBox="0 0 395.52 122.12740846035503" height="122.12740846035503" width="395.52"><g><svg viewBox="0 0 395.52 122.12740846035503" height="122.12740846035503" width="395.52"><g><svg viewBox="0 0 395.52 122.12740846035503" height="122.12740846035503" width="395.52"><g><svg viewBox="0 0 395.52 122.12740846035503" height="122.12740846035503" width="395.52"><g><svg viewBox="0 0 395.52 97.55631813180013" height="97.55631813180013" width="395.52"><path d="M394.594 20.924C392.735 10.798 387.435 7.983 387.435 7.983 371.165-2.448 350.86-0.2 332.619 1.299 300.414 1.36 268.339 3.588 236.208 4.783 168.767 4.965 100.749 1.968 33.643 9.36 27.339 11.628-6.54 9.805 1.121 22.22 3.129 27.385 10.456 33.116 10.232 37.855 11.236 38.686 12.631 36.782 13.226 37.977 15.309 41.197 18.711 39.678 21.501 41.582 17.614 46.665 20.403 50.898 23.062 55.333 18.377 56.488 12.371 55.941 9.675 59.768 9.396 62.543 7.89 62.017 6.235 61.895 5.026 61.814 2.59 62.118 2.999 62.989 4.394 65.966-1.594 67.687 2.162 70.604-0.422 73.763 3.948 76.497 3.353 79.92 3.278 80.608 3.687 81.196 4.338 81.358 7.22 82.229 3.018 83.93 3.464 85.773 33.029 98.37 65.104 89.661 95.394 95.454 103.259 91.403 97.346 96.892 100.489 96.041 102.943 95.049 104.728 99.16 107.499 96.831 107.927 96.162 107.276 94.583 108.8 94.887 109.6 95.049 110.307 95.008 110.418 94.076 110.586 92.679 109.117 93.55 108.726 92.821 112.947 89.135 111.906 97.904 115.866 97.54 115.68 96.466 114.528 94.927 116.889 95.13 119.232 93.59 119.306 92.314 121.389 95.778 121.463 96.527 121.835 97.054 122.43 97.418 128.938 93.651 135.409 98.755 142.233 97.054 146.417 95.19 150.433 98.066 154.672 97.357 156.16 96.79 157.666 95.778 159.098 97.479 176.632 97.843 195.319 96.324 211.943 97.54 256.364 95.271 303.835 98.471 350.674 95.474 361.719 94.319 373.192 92.679 383.958 91.363 383.958 91.363 392.679 87.758 392.679 71.556S394.538 57.379 394.817 44.478C395.096 31.577 396.398 31.05 394.538 20.924Z" opacity="1" fill="#f9cc0b" data-fill-palette-color="tertiary"></path><g transform="matrix(1,0,0,1,55.76832,26.068561146666667)"><svg width="283.98335999999995" viewBox="3 -35 219.1300048828125 35.04999923706055" height="45.41919583846679" data-palette-color="#0c1d36"><path d="M7.65 0L3 0 3-35 18-35Q19.45-35 20.5-33.95 21.55-32.9 21.55-31.4L21.55-31.4 21.55-20.65Q21.55-19.15 20.5-18.1 19.45-17.05 18-17.05L18-17.05 16.95-17.05 21.55 0 16.95 0 12.3-17.05 7.65-17.05 7.65 0ZM7.65-30.35L7.65-21.7 15.15-21.7Q15.85-21.7 16.4-22.23 16.95-22.75 16.95-23.5L16.95-23.5 16.95-28.55Q16.95-29.3 16.4-29.83 15.85-30.35 15.15-30.35L15.15-30.35 7.65-30.35ZM39.5 0L28.15 0Q26.75 0 25.7-1.05 24.65-2.1 24.65-3.65L24.65-3.65 24.65-31.35Q24.65-32.9 25.7-33.95 26.75-35 28.15-35L28.15-35 39.5-35Q41.1-35 42.12-33.95 43.15-32.9 43.15-31.35L43.15-31.35 43.15-3.65Q43.15-2.1 42.12-1.05 41.1 0 39.5 0L39.5 0ZM31-4.6L31-4.6 36.65-4.6Q37.5-4.6 38.02-5.15 38.55-5.7 38.55-6.5L38.55-6.5 38.55-28.5Q38.55-29.35 38.02-29.88 37.5-30.4 36.65-30.4L36.65-30.4 31-30.4Q30.3-30.4 29.77-29.88 29.25-29.35 29.25-28.5L29.25-28.5 29.25-6.5Q29.25-5.7 29.77-5.15 30.3-4.6 31-4.6ZM50.5 0.05L45.85 0.05 52.9-34.95 57.45-34.95 64.4 0.05 59.75 0.05 58.4-6.5 51.75-6.5 50.5 0.05ZM55.2-23.55L52.65-11.1 57.6-11.1 55.2-23.55ZM82.59 0L67.59 0 67.59-35 82.59-35Q84.04-35 85.09-33.95 86.14-32.9 86.14-31.4L86.14-31.4 86.14-3.6Q86.14-2.1 85.09-1.05 84.04 0 82.59 0L82.59 0ZM72.24-30.35L72.24-4.65 79.74-4.65Q80.44-4.65 80.99-5.18 81.54-5.7 81.54-6.45L81.54-6.45 81.54-28.55Q81.54-29.3 80.99-29.83 80.44-30.35 79.74-30.35L79.74-30.35 72.24-30.35ZM96.99 0L92.34 0 92.34-35 96.99-35 103.94-13.65 110.89-35 115.54-35 115.54 0 110.89 0 110.89-20.8 106.24-6.55 101.64-6.55 96.99-20.8 96.99 0ZM122.89 0.05L118.24 0.05 125.29-34.95 129.84-34.95 136.79 0.05 132.14 0.05 130.79-6.5 124.14-6.5 122.89 0.05ZM127.59-23.55L125.04-11.1 129.99-11.1 127.59-23.55ZM154.34 0L142.99 0Q141.49 0 140.44-1.05 139.39-2.1 139.39-3.6L139.39-3.6 139.39-11.35 144.04-10.3 144.04-6.45Q144.04-5.7 144.56-5.18 145.09-4.65 145.79-4.65L145.79-4.65 151.49-4.65Q152.24-4.65 152.76-5.18 153.29-5.7 153.29-6.45L153.29-6.45 153.29-15.25Q153.29-16 152.76-16.53 152.24-17.05 151.49-17.05L151.49-17.05 142.99-17.05Q141.49-17.05 140.44-18.1 139.39-19.15 139.39-20.65L139.39-20.65 139.39-31.4Q139.39-32.9 140.44-33.95 141.49-35 142.99-35L142.99-35 154.34-35Q155.84-35 156.89-33.95 157.94-32.9 157.94-31.4L157.94-31.4 157.94-26 153.29-27.1 153.29-28.55Q153.29-29.3 152.76-29.83 152.24-30.35 151.49-30.35L151.49-30.35 145.79-30.35Q145.09-30.35 144.56-29.83 144.04-29.3 144.04-28.55L144.04-28.55 144.04-23.5Q144.04-22.75 144.56-22.23 145.09-21.7 145.79-21.7L145.79-21.7 154.34-21.7Q155.84-21.7 156.89-20.65 157.94-19.6 157.94-18.1L157.94-18.1 157.94-3.6Q157.94-2.1 156.89-1.05 155.84 0 154.34 0L154.34 0ZM171.93 0L167.28 0 167.28-30.35 160.33-30.35 160.33-35 178.88-35 178.88-30.35 171.93-30.35 171.93 0ZM200.48 0L181.88 0 181.88-35 200.48-35 200.48-30.4 186.53-30.4 186.53-21.7 195.83-21.7 194.78-17.05 186.53-17.05 186.53-4.65 200.48-4.65 200.48 0ZM208.23 0L203.58 0 203.58-35 218.58-35Q220.03-35 221.08-33.95 222.13-32.9 222.13-31.4L222.13-31.4 222.13-20.65Q222.13-19.15 221.08-18.1 220.03-17.05 218.58-17.05L218.58-17.05 217.53-17.05 222.13 0 217.53 0 212.88-17.05 208.23-17.05 208.23 0ZM208.23-30.35L208.23-21.7 215.73-21.7Q216.43-21.7 216.98-22.23 217.53-22.75 217.53-23.5L217.53-23.5 217.53-28.55Q217.53-29.3 216.98-29.83 216.43-30.35 215.73-30.35L215.73-30.35 208.23-30.35Z" opacity="1" transform="matrix(1,0,0,1,0,0)" fill="#0c1d36" class="undefined-text-0" data-fill-palette-color="quaternary" id="text-0"></path></svg></g></svg></g><g transform="matrix(1,0,0,1,75.54432,108.27870020856201)"><svg viewBox="0 0 244.43135999999998 13.848708251793012" height="13.848708251793012" width="244.43135999999998"><g transform="matrix(1,0,0,1,0,0)"><svg width="244.43135999999998" viewBox="4.485714435577393 -36.45000076293945 825.1198120117188 46.75434875488281" height="13.848708251793012" data-palette-color="#f9cc0b"><path d="M7.65 0.1L7.65 0.1Q6.9 0.15 6.25-0.25L6.25-0.25Q5.45-0.5 4.98-1.18 4.5-1.85 4.5-2.7L4.5-2.7Q4.5-4.3 4.75-18.35L4.75-18.35Q4.8-20.65 4.6-25.7L4.6-25.7Q4.4-30.65 4.55-33.4L4.55-33.4Q4.6-34.45 5.38-35.15 6.15-35.85 7.15-35.8L7.15-35.8 7.35-35.8Q7.8-36.05 8.3-36.1L8.3-36.1Q10.6-36.3 11.95-36.38 13.3-36.45 15.75-36.45 18.2-36.45 19.95-36.13 21.7-35.8 23.83-35.05 25.95-34.3 27.6-33.1L27.6-33.1Q31.1-30.55 32.73-26.58 34.35-22.6 34.2-18.2L34.2-18.2Q34.05-13.95 32.3-10L32.3-10Q30.5-6.1 27.35-3.6L27.35-3.6Q23.6-0.6 17.2-0.1L17.2-0.1Q15.3 0.05 12.2 0.05L12.2 0.05Q8.85 0.05 7.65 0.1L7.65 0.1ZM9.55-4.95L12.2-4.95Q15.15-4.95 16.8-5.1L16.8-5.1Q21.35-5.45 23.95-7.5L23.95-7.5Q26.15-9.25 27.48-12.18 28.8-15.1 28.9-18.4L28.9-18.4Q29.05-21.7 27.9-24.5L27.9-24.5Q26.7-27.35 24.4-29L24.4-29Q22.55-30.35 20-30.95L20-30.95Q17.4-31.55 14.95-31.48 12.5-31.4 9.5-31.15L9.5-31.15Q9.45-29.7 9.6-25.9L9.6-25.9Q9.8-20.45 9.75-18.25L9.75-18.25Q9.75-16.75 9.7-14.08 9.65-11.4 9.6-9.15 9.55-6.9 9.55-4.95L9.55-4.95ZM42.35 0L42.35 0Q41.35 0 40.6-0.68 39.85-1.35 39.85-2.5L39.85-2.5 39.75-12.7Q39.7-16.15 39.7-21.3L39.7-21.3 39.7-24.25Q39.7-25.4 40.4-26.05 41.1-26.7 42.1-26.7L42.1-26.7Q43.15-26.7 43.92-26.03 44.7-25.35 44.7-24.15L44.7-24.15 44.7-22.65Q45.25-23.85 46.75-24.7L46.75-24.7Q48.8-25.95 51.25-25.95L51.25-25.95Q53.1-25.95 54.1-25.35 55.1-24.75 55.1-23.2L55.1-23.2Q55.1-22.2 54.5-21.53 53.9-20.85 52.75-20.85L52.75-20.85Q48.55-20.85 46.95-19.7L46.95-19.7Q46.05-19.1 45.37-18.25 44.7-17.4 44.7-16.6L44.7-16.6 44.8-10.35 44.85-2.5Q44.85-1.35 44.1-0.68 43.35 0 42.35 0L42.35 0ZM57.8-2.4L57.8-2.4Q57.7-6.15 57.82-13.9 57.95-21.65 57.95-24.05L57.95-24.05Q57.95-25.1 58.67-25.83 59.4-26.55 60.45-26.55 61.5-26.55 62.22-25.83 62.95-25.1 62.95-24.05L62.95-24.05Q62.95-21.65 62.82-13.95 62.7-6.25 62.8-2.5L62.8-2.5Q62.8-1.45 62.1-0.7 61.4 0.05 60.35 0.05 59.3 0.05 58.55-0.65 57.8-1.35 57.8-2.4L57.8-2.4ZM62.45-35.2L62.45-35.2Q63.3-34.35 63.3-33.1 63.3-31.85 62.45-31 61.6-30.15 60.35-30.15 59.1-30.15 58.25-31 57.4-31.85 57.4-33.1 57.4-34.35 58.25-35.2 59.1-36.05 60.37-36.08 61.65-36.1 62.45-35.2L62.45-35.2ZM75.79 0L75.79 0Q74.84 0.05 74.09-0.5L74.09-0.5Q73.84-0.7 73.64-0.95L73.64-0.95Q73.44-1.15 73.29-1.4L73.29-1.4 72.89-2.1Q72.59-2.7 72.14-3.75L72.14-3.75 71.14-6Q70.34-7.95 67.67-14.93 64.99-21.9 64.49-23.15L64.49-23.15Q64.14-24.1 64.57-25.05 64.99-26 65.94-26.38 66.89-26.75 67.84-26.33 68.79-25.9 69.19-24.95L69.19-24.95Q69.59-23.85 72.32-16.75 75.04-9.65 75.74-7.9L75.74-7.9 75.94-7.45Q76.14-7.8 76.29-8.18 76.44-8.55 76.54-8.78 76.64-9 76.69-9.2L76.69-9.2 76.79-9.4Q77.14-10.2 79.47-16.2 81.79-22.2 83.44-25.2L83.44-25.2Q83.94-26.1 84.94-26.4 85.94-26.7 86.84-26.2 87.74-25.7 88.04-24.7 88.34-23.7 87.84-22.8L87.84-22.8Q86.24-19.9 84.17-14.5 82.09-9.1 81.39-7.4L81.39-7.4 79.99-4.35Q79.29-2.95 78.69-2.05L78.69-2.05Q78.24-1.4 77.79-1L77.79-1Q76.89-0.1 75.79 0L75.79 0ZM91.74-2.4L91.74-2.4Q91.64-6.15 91.77-13.9 91.89-21.65 91.89-24.05L91.89-24.05Q91.89-25.1 92.62-25.83 93.34-26.55 94.39-26.55 95.44-26.55 96.17-25.83 96.89-25.1 96.89-24.05L96.89-24.05Q96.89-21.65 96.77-13.95 96.64-6.25 96.74-2.5L96.74-2.5Q96.74-1.45 96.04-0.7 95.34 0.05 94.29 0.05 93.24 0.05 92.49-0.65 91.74-1.35 91.74-2.4L91.74-2.4ZM96.39-35.2L96.39-35.2Q97.24-34.35 97.24-33.1 97.24-31.85 96.39-31 95.54-30.15 94.29-30.15 93.04-30.15 92.19-31 91.34-31.85 91.34-33.1 91.34-34.35 92.19-35.2 93.04-36.05 94.32-36.08 95.59-36.1 96.39-35.2L96.39-35.2ZM106.04 0L106.04 0Q105.04 0 104.29-0.68 103.54-1.35 103.54-2.5L103.54-2.5Q103.54-6.45 103.49-9.3L103.49-9.3Q103.39-17.8 103.39-24.05L103.39-24.05Q103.39-25.2 104.09-25.85 104.79-26.5 105.79-26.5L105.79-26.5Q106.84-26.5 107.61-25.83 108.39-25.15 108.39-23.95L108.39-23.95 108.39-22.4Q111.49-26.45 116.54-26.45L116.54-26.45Q120.89-26.45 123.21-23.4 125.54-20.35 125.54-15.2L125.54-15.2Q125.54-9.5 125.39-7.7L125.39-7.7 125.14-4.35 124.99-2.2Q124.89-1.2 124.19-0.6 123.49 0 122.54 0L122.54 0Q121.54 0 120.79-0.68 120.04-1.35 120.04-2.5L120.04-2.5Q120.04-3.3 120.39-8.05L120.39-8.05Q120.64-11.3 120.64-13.15L120.64-13.15Q120.64-17.4 119.44-19.43 118.24-21.45 115.74-21.45L115.74-21.45Q113.94-21.45 112.01-20.35 110.09-19.25 108.39-17.55L108.39-17.55 108.49-10.45 108.54-2.5Q108.54-1.35 107.79-0.68 107.04 0 106.04 0L106.04 0ZM142.94 10.25L142.94 10.25Q140.04 10.5 137.36 9.6 134.69 8.7 132.94 6.45L132.94 6.45Q132.29 5.6 131.86 4.35 131.44 3.1 131.94 2.18 132.44 1.25 133.41 0.95 134.39 0.65 135.31 1.15 136.24 1.65 136.54 2.6L136.54 2.6Q136.64 3 136.79 3.68 136.94 4.35 137.89 5L137.89 5Q140.14 5.8 142.84 5.7L142.84 5.7Q145.29 5.6 146.59 4.67 147.89 3.75 148.24 2.55L148.24 2.55Q148.74 0.85 149.04-2.85L149.04-2.85Q147.14-0.85 143.29-0.45L143.29-0.45Q139.99-0.3 137.36-1.38 134.74-2.45 133.21-4.45 131.69-6.45 130.99-8.9L130.99-8.9Q130.29-11.25 130.49-14.8L130.49-14.8Q130.89-20.3 134.79-23.65L134.79-23.65Q139.14-27.1 145.29-26.1L145.29-26.1Q147.54-25.35 148.84-24.3L148.84-24.3Q148.89-26.3 150.74-26.75L150.74-26.75Q151.94-26.85 152.66-26.2 153.39-25.55 153.54-24.55L153.54-24.55Q154.09-18.45 154.19-9.65L154.19-9.65Q154.24-4.65 153.89-1.3L153.89-1.3Q153.49 3.7 151.54 6.18 149.59 8.65 147.64 9.33 145.69 10 142.94 10.25L142.94 10.25ZM142.94-5.55L142.94-5.55Q144.79-5.5 145.79-6L145.79-6Q148.69-6.9 149.14-10.75L149.14-10.75Q149.39-13.7 148.89-16.4L148.89-16.4Q148.54-18.1 146.84-19.35L146.84-19.35Q145.84-20.15 144.29-20.4L144.29-20.4Q140.29-21.1 138.14-19.2L138.14-19.2Q136.09-17.55 135.79-14.35L135.79-14.35Q135.54-10.15 137.44-7.8L137.44-7.8Q139.39-5.5 142.94-5.55L142.94-5.55ZM173.33 10.05L173.33 10.05Q172.28 10.15 171.48 9.47 170.68 8.8 170.58 7.78 170.48 6.75 171.16 5.95 171.83 5.15 172.83 5.05L172.83 5.05Q173.33 5 174.03 4.95 174.73 4.9 174.96 4.88 175.18 4.85 175.53 4.78 175.88 4.7 176.08 4.55L176.08 4.55 176.58 4.25Q177.78 3.65 178.73 0.9L178.73 0.9Q179.03 0.05 179.33-0.3L179.33-0.3Q178.98-0.7 178.78-1.25L178.78-1.25Q177.88-5.1 175.08-12.65L175.08-12.65Q172.58-19.3 171.38-23.3L171.38-23.3Q171.08-24.3 171.58-25.2 172.08-26.1 173.08-26.4 174.08-26.7 174.98-26.2 175.88-25.7 176.18-24.7L176.18-24.7Q177.13-21.5 179.78-14.4L179.78-14.4 181.68-9.2Q185.18-19.9 188.08-25.25L188.08-25.25Q188.58-26.15 189.58-26.45 190.58-26.75 191.48-26.25 192.38-25.75 192.68-24.75 192.98-23.75 192.48-22.85L192.48-22.85Q191.18-20.45 189.78-17 188.38-13.55 187.58-11.2 186.78-8.85 185.48-4.65L185.48-4.65Q185.18-3.65 185.08-3.25L185.08-3.25Q184.83-2.6 184.38-0.65L184.38-0.65Q183.83 1.2 183.48 2.35L183.48 2.35Q182.08 6.25 179.68 8.15L179.68 8.15Q178.98 8.7 178.28 9.08 177.58 9.45 176.81 9.63 176.03 9.8 175.58 9.88 175.13 9.95 174.31 9.98 173.48 10 173.33 10.05L173.33 10.05ZM208.78-0.35L208.78-0.35Q202.18 1.25 198.23-3L198.23-3Q195.08-6.25 194.33-11.35L194.33-11.35Q193.78-15.35 195.28-18.95L195.28-18.95Q197.08-23.55 200.98-25.75L200.98-25.75Q201.78-26.2 202.98-26.4L202.98-26.4Q203.03-26.4 203.68-26.45L203.68-26.45Q203.93-26.5 204.08-26.55L204.08-26.55Q204.83-26.7 205.58-26.4L205.58-26.4Q205.78-26.4 206.53-26.38 207.28-26.35 207.53-26.33 207.78-26.3 208.4-26.23 209.03-26.15 209.43-26.05L209.43-26.05 210.38-25.7Q210.98-25.5 211.53-25.2 212.08-24.9 212.73-24.5L212.73-24.5Q215.98-22.3 217.23-18.32 218.48-14.35 217.88-11.9L217.88-11.9Q217.43-9.2 216.28-6.88 215.13-4.55 213.1-2.75 211.08-0.95 208.78-0.35L208.78-0.35ZM207.23-5.55L207.23-5.55Q209.38-5.85 210.9-7.78 212.43-9.7 212.9-11.85 213.38-14 212.55-16.57 211.73-19.15 209.93-20.3L209.93-20.3Q209.38-20.7 209.03-20.88 208.68-21.05 208.2-21.18 207.73-21.3 207.45-21.3 207.18-21.3 206.28-21.35 205.38-21.4 204.68-21.45L204.68-21.45Q204.53-21.45 204.33-21.5L204.33-21.5Q203.78-21.45 203.73-21.45L203.73-21.45 203.38-21.35Q201.18-20.15 200-17.53 198.83-14.9 199.33-12.1L199.33-12.1Q199.88-8.7 201.78-6.95L201.78-6.95Q203.83-5.05 207.23-5.55L207.23-5.55ZM242.03 0L242.03 0Q241.13-0.05 240.45-0.7 239.78-1.35 239.68-2.9L239.68-2.9Q237.38-0.9 234.93-0.3L234.93-0.3Q231.43 0.6 228.53-1.45L228.53-1.45Q225.73-3.45 224.13-8.05L224.13-8.05Q223.58-9.65 223.28-11.35L223.28-11.35Q222.98-13.1 223-15.08 223.03-17.05 223.08-18.28 223.13-19.5 223.33-21.63 223.53-23.75 223.58-24.3L223.58-24.3Q223.68-25.3 224.45-25.98 225.23-26.65 226.25-26.58 227.28-26.5 227.95-25.73 228.63-24.95 228.58-23.9L228.58-23.9Q228.53-23.15 228.3-21.05 228.08-18.95 228.05-17.93 228.03-16.9 228-15.23 227.98-13.55 228.2-12.23 228.43-10.9 228.83-9.65L228.83-9.65Q229.93-6.6 231.63-5.5L231.63-5.5Q232.33-5.05 233.93-5.05L233.93-5.05Q236.08-5.4 237.4-6.3 238.73-7.2 239.88-10.4L239.88-10.4Q239.98-17.05 239.73-23.9L239.73-23.9Q239.68-24.95 240.4-25.7 241.13-26.45 242.15-26.5 243.18-26.55 243.93-25.83 244.68-25.1 244.73-24.1L244.73-24.1Q245.13-12.3 244.68-2.35L244.68-2.35Q244.63-1.35 243.85-0.65 243.08 0.05 242.03 0L242.03 0ZM254.07 0L254.07 0Q253.07 0 252.32-0.68 251.57-1.35 251.57-2.5L251.57-2.5 251.47-12.7Q251.42-16.15 251.42-21.3L251.42-21.3 251.42-24.25Q251.42-25.4 252.12-26.05 252.82-26.7 253.82-26.7L253.82-26.7Q254.87-26.7 255.65-26.03 256.42-25.35 256.42-24.15L256.42-24.15 256.42-22.65Q256.97-23.85 258.47-24.7L258.47-24.7Q260.52-25.95 262.97-25.95L262.97-25.95Q264.82-25.95 265.82-25.35 266.82-24.75 266.82-23.2L266.82-23.2Q266.82-22.2 266.22-21.53 265.62-20.85 264.47-20.85L264.47-20.85Q260.27-20.85 258.67-19.7L258.67-19.7Q257.77-19.1 257.1-18.25 256.42-17.4 256.42-16.6L256.42-16.6 256.52-10.35 256.57-2.5Q256.57-1.35 255.82-0.68 255.07 0 254.07 0L254.07 0ZM286.37 0L286.37 0Q285.47 0 284.82-0.55 284.17-1.1 284.07-2.15L284.07-2.15Q283.27-8.7 283.17-17.15L283.17-17.15 283.12-20.9 282.72-20.9Q281.47-20.9 280.79-21.63 280.12-22.35 280.12-23.45L280.12-23.45Q280.12-24.45 280.72-25.23 281.32-26 282.42-26L282.42-26 283.32-26Q283.32-28.95 284.19-31.68 285.07-34.4 286.77-35.35L286.77-35.35Q288.47-36.25 289.97-36.25L289.97-36.25Q292.07-36.25 293.32-35.5 294.57-34.75 294.57-33.35L294.57-33.35Q294.57-32.2 294.02-31.5 293.47-30.8 292.47-30.8L292.47-30.8Q292.17-30.8 291.89-30.85 291.62-30.9 291.37-30.95L291.37-30.95Q290.67-31.15 289.92-31.15L289.92-31.15Q289.07-31.15 288.77-29.78 288.47-28.4 288.32-26L288.32-26 290.47-26Q291.62-26 292.29-25.25 292.97-24.5 292.97-23.5L292.97-23.5Q292.97-22.5 292.29-21.75 291.62-21 290.47-21L290.47-21 288.12-21 288.17-17.2Q288.62-6.1 288.97-3.05L288.97-3.05Q289.12-1.4 288.32-0.7 287.52 0 286.37 0L286.37 0ZM315.97 0L315.97 0Q315.07-0.05 314.39-0.7 313.72-1.35 313.62-2.9L313.62-2.9Q311.32-0.9 308.87-0.3L308.87-0.3Q305.37 0.6 302.47-1.45L302.47-1.45Q299.67-3.45 298.07-8.05L298.07-8.05Q297.52-9.65 297.22-11.35L297.22-11.35Q296.92-13.1 296.94-15.08 296.97-17.05 297.02-18.28 297.07-19.5 297.27-21.63 297.47-23.75 297.52-24.3L297.52-24.3Q297.62-25.3 298.39-25.98 299.17-26.65 300.19-26.58 301.22-26.5 301.89-25.73 302.57-24.95 302.52-23.9L302.52-23.9Q302.47-23.15 302.24-21.05 302.02-18.95 301.99-17.93 301.97-16.9 301.94-15.23 301.92-13.55 302.14-12.23 302.37-10.9 302.77-9.65L302.77-9.65Q303.87-6.6 305.57-5.5L305.57-5.5Q306.27-5.05 307.87-5.05L307.87-5.05Q310.02-5.4 311.34-6.3 312.67-7.2 313.82-10.4L313.82-10.4Q313.92-17.05 313.67-23.9L313.67-23.9Q313.62-24.95 314.34-25.7 315.07-26.45 316.09-26.5 317.12-26.55 317.87-25.83 318.62-25.1 318.67-24.1L318.67-24.1Q319.07-12.3 318.62-2.35L318.62-2.35Q318.57-1.35 317.79-0.65 317.02 0.05 315.97 0L315.97 0ZM333.66-0.15L333.66-0.15Q333.36-0.25 332.44-0.45 331.51-0.65 330.84-0.9 330.16-1.15 329.29-1.63 328.41-2.1 327.71-2.93 327.01-3.75 326.51-4.9L326.51-4.9Q325.96-6.25 325.81-10.2L325.81-10.2Q325.66-13.25 325.76-18.05L325.76-18.05Q325.76-18.95 325.81-21.05L325.81-21.05 325.41-21Q324.36-20.9 323.56-21.55 322.76-22.2 322.64-23.23 322.51-24.25 323.16-25.05 323.81-25.85 324.81-26L324.81-26 325.96-26.1Q326.01-28.75 326.11-31.45L326.11-31.45Q326.16-32.5 326.91-33.2 327.66-33.9 328.71-33.85 329.76-33.8 330.46-33.05 331.16-32.3 331.11-31.25L331.11-31.25 330.96-26.5 332.61-26.6Q333.66-26.65 334.44-26 335.21-25.35 335.29-24.3 335.36-23.25 334.71-22.48 334.06-21.7 333.01-21.6L333.01-21.6 330.81-21.5Q330.76-19.1 330.76-18L330.76-18Q330.66-13.3 330.81-10.35L330.81-10.35Q330.91-7.35 331.11-6.9 331.31-6.45 331.41-6.28 331.51-6.1 331.79-5.93 332.06-5.75 332.36-5.7 332.66-5.65 333.49-5.43 334.31-5.2 335.26-4.85L335.26-4.85Q336.21-4.55 336.69-3.63 337.16-2.7 336.84-1.73 336.51-0.75 335.59-0.28 334.66 0.2 333.66-0.15L333.66-0.15ZM358.41 0L358.41 0Q357.51-0.05 356.84-0.7 356.16-1.35 356.06-2.9L356.06-2.9Q353.76-0.9 351.31-0.3L351.31-0.3Q347.81 0.6 344.91-1.45L344.91-1.45Q342.11-3.45 340.51-8.05L340.51-8.05Q339.96-9.65 339.66-11.35L339.66-11.35Q339.36-13.1 339.39-15.08 339.41-17.05 339.46-18.28 339.51-19.5 339.71-21.63 339.91-23.75 339.96-24.3L339.96-24.3Q340.06-25.3 340.84-25.98 341.61-26.65 342.64-26.58 343.66-26.5 344.34-25.73 345.01-24.95 344.96-23.9L344.96-23.9Q344.91-23.15 344.69-21.05 344.46-18.95 344.44-17.93 344.41-16.9 344.39-15.23 344.36-13.55 344.59-12.23 344.81-10.9 345.21-9.65L345.21-9.65Q346.31-6.6 348.01-5.5L348.01-5.5Q348.71-5.05 350.31-5.05L350.31-5.05Q352.46-5.4 353.79-6.3 355.11-7.2 356.26-10.4L356.26-10.4Q356.36-17.05 356.11-23.9L356.11-23.9Q356.06-24.95 356.79-25.7 357.51-26.45 358.54-26.5 359.56-26.55 360.31-25.83 361.06-25.1 361.11-24.1L361.11-24.1Q361.51-12.3 361.06-2.35L361.06-2.35Q361.01-1.35 360.24-0.65 359.46 0.05 358.41 0L358.41 0ZM370.46 0L370.46 0Q369.46 0 368.71-0.68 367.96-1.35 367.96-2.5L367.96-2.5 367.86-12.7Q367.81-16.15 367.81-21.3L367.81-21.3 367.81-24.25Q367.81-25.4 368.51-26.05 369.21-26.7 370.21-26.7L370.21-26.7Q371.26-26.7 372.03-26.03 372.81-25.35 372.81-24.15L372.81-24.15 372.81-22.65Q373.36-23.85 374.86-24.7L374.86-24.7Q376.91-25.95 379.36-25.95L379.36-25.95Q381.21-25.95 382.21-25.35 383.21-24.75 383.21-23.2L383.21-23.2Q383.21-22.2 382.61-21.53 382.01-20.85 380.86-20.85L380.86-20.85Q376.66-20.85 375.06-19.7L375.06-19.7Q374.16-19.1 373.48-18.25 372.81-17.4 372.81-16.6L372.81-16.6 372.91-10.35 372.96-2.5Q372.96-1.35 372.21-0.68 371.46 0 370.46 0L370.46 0ZM397.21 0.25L397.21 0.25Q393.51 0 390.76-1.25 388.01-2.5 386.56-4.4 385.11-6.3 384.46-7.9 383.81-9.5 383.66-11.08 383.51-12.65 383.81-15.15L383.81-15.15Q384.16-17.25 385.28-19.3 386.41-21.35 388.28-22.98 390.16-24.6 392.81-25.48 395.46-26.35 398.46-26L398.46-26Q401.36-25.65 403.41-24.43 405.46-23.2 406.91-21.3L406.91-21.3Q408.16-19.7 408.43-18.9 408.71-18.1 408.93-17.4 409.16-16.7 409.31-16.2 409.46-15.7 409.58-15.18 409.71-14.65 409.76-13.95L409.76-13.95Q409.81-13 409.41-12.2 409.01-11.4 408.21-10.95L408.21-10.95Q407.56-10.7 406.81-10.7L406.81-10.7 398.26-10.55Q389.26-10.5 389.26-10.35L389.26-10.35 389.11-10.35Q389.76-7.8 391.83-6.35 393.91-4.9 397.51-4.65L397.51-4.65Q399.46-4.55 400.76-4.85L400.76-4.85Q402.21-5.25 402.86-5.58 403.51-5.9 404.46-6.45L404.46-6.45Q405.41-6.8 406.36-6.35 407.31-5.9 407.66-4.95 408.01-4 407.58-3.1 407.16-2.2 406.26-1.7L406.26-1.7Q405.46-1.25 404.61-0.93 403.76-0.6 402.11-0.15 400.46 0.3 397.21 0.25L397.21 0.25ZM389.21-15.25L389.21-15.25Q392.11-15.4 404.26-15.55L404.26-15.55Q403.81-17.05 402.81-18.4L402.81-18.4Q400.81-20.7 397.86-21.05L397.86-21.05Q394.76-21.45 392.41-19.73 390.06-18 389.21-15.25L389.21-15.25ZM413 7.65L413 7.65Q412.1 7.65 411.55 7.05 411 6.45 411 5.55L411 5.55Q411 5 411.2 4.55 411.4 4.1 411.85 3.5L411.85 3.5Q412.3 2.85 412.55 2.33 412.8 1.8 412.8 1.2L412.8 1.2Q412.8 0.45 412.4-0.9L412.4-0.9Q412.1-2 412.1-2.35L412.1-2.35Q412.1-3.35 412.78-4.03 413.45-4.7 414.35-4.7L414.35-4.7Q416.25-4.7 416.75-2.95L416.75-2.95Q417.35-0.6 417.35 1L417.35 1Q417.35 2.1 416.98 3.13 416.6 4.15 415.9 5.6L415.9 5.6Q414.85 7.65 413 7.65L413 7.65ZM449.7-0.35L449.7-0.35Q443.1 1.25 439.15-3L439.15-3Q436-6.25 435.25-11.35L435.25-11.35Q434.7-15.35 436.2-18.95L436.2-18.95Q438-23.55 441.9-25.75L441.9-25.75Q442.7-26.2 443.9-26.4L443.9-26.4Q443.95-26.4 444.6-26.45L444.6-26.45Q444.85-26.5 445-26.55L445-26.55Q445.75-26.7 446.5-26.4L446.5-26.4Q446.7-26.4 447.45-26.38 448.2-26.35 448.45-26.33 448.7-26.3 449.32-26.23 449.95-26.15 450.35-26.05L450.35-26.05 451.3-25.7Q451.9-25.5 452.45-25.2 453-24.9 453.65-24.5L453.65-24.5Q456.9-22.3 458.15-18.32 459.4-14.35 458.8-11.9L458.8-11.9Q458.35-9.2 457.2-6.88 456.05-4.55 454.02-2.75 452-0.95 449.7-0.35L449.7-0.35ZM448.15-5.55L448.15-5.55Q450.3-5.85 451.82-7.78 453.35-9.7 453.82-11.85 454.3-14 453.47-16.57 452.65-19.15 450.85-20.3L450.85-20.3Q450.3-20.7 449.95-20.88 449.6-21.05 449.12-21.18 448.65-21.3 448.37-21.3 448.1-21.3 447.2-21.35 446.3-21.4 445.6-21.45L445.6-21.45Q445.45-21.45 445.25-21.5L445.25-21.5Q444.7-21.45 444.65-21.45L444.65-21.45 444.3-21.35Q442.1-20.15 440.92-17.53 439.75-14.9 440.25-12.1L440.25-12.1Q440.8-8.7 442.7-6.95L442.7-6.95Q444.75-5.05 448.15-5.55L448.15-5.55ZM467.15 0L467.15 0Q466.15 0 465.4-0.68 464.65-1.35 464.65-2.5L464.65-2.5Q464.65-6.45 464.6-9.3L464.6-9.3Q464.5-17.8 464.5-24.05L464.5-24.05Q464.5-25.2 465.2-25.85 465.9-26.5 466.9-26.5L466.9-26.5Q467.95-26.5 468.72-25.83 469.5-25.15 469.5-23.95L469.5-23.95 469.5-22.4Q472.6-26.45 477.65-26.45L477.65-26.45Q482-26.45 484.32-23.4 486.65-20.35 486.65-15.2L486.65-15.2Q486.65-9.5 486.5-7.7L486.5-7.7 486.25-4.35 486.1-2.2Q486-1.2 485.3-0.6 484.6 0 483.65 0L483.65 0Q482.65 0 481.9-0.68 481.15-1.35 481.15-2.5L481.15-2.5Q481.15-3.3 481.5-8.05L481.5-8.05Q481.75-11.3 481.75-13.15L481.75-13.15Q481.75-17.4 480.55-19.43 479.35-21.45 476.85-21.45L476.85-21.45Q475.05-21.45 473.12-20.35 471.2-19.25 469.5-17.55L469.5-17.55 469.6-10.45 469.65-2.5Q469.65-1.35 468.9-0.68 468.15 0 467.15 0L467.15 0ZM505.04 0.25L505.04 0.25Q501.34 0 498.59-1.25 495.84-2.5 494.39-4.4 492.94-6.3 492.29-7.9 491.64-9.5 491.49-11.08 491.34-12.65 491.64-15.15L491.64-15.15Q491.99-17.25 493.12-19.3 494.24-21.35 496.12-22.98 497.99-24.6 500.64-25.48 503.29-26.35 506.29-26L506.29-26Q509.19-25.65 511.24-24.43 513.29-23.2 514.74-21.3L514.74-21.3Q515.99-19.7 516.27-18.9 516.54-18.1 516.77-17.4 516.99-16.7 517.14-16.2 517.29-15.7 517.42-15.18 517.54-14.65 517.59-13.95L517.59-13.95Q517.64-13 517.24-12.2 516.84-11.4 516.04-10.95L516.04-10.95Q515.39-10.7 514.64-10.7L514.64-10.7 506.09-10.55Q497.09-10.5 497.09-10.35L497.09-10.35 496.94-10.35Q497.59-7.8 499.67-6.35 501.74-4.9 505.34-4.65L505.34-4.65Q507.29-4.55 508.59-4.85L508.59-4.85Q510.04-5.25 510.69-5.58 511.34-5.9 512.29-6.45L512.29-6.45Q513.24-6.8 514.19-6.35 515.14-5.9 515.49-4.95 515.84-4 515.42-3.1 514.99-2.2 514.09-1.7L514.09-1.7Q513.29-1.25 512.44-0.93 511.59-0.6 509.94-0.15 508.29 0.3 505.04 0.25L505.04 0.25ZM497.04-15.25L497.04-15.25Q499.94-15.4 512.09-15.55L512.09-15.55Q511.64-17.05 510.64-18.4L510.64-18.4Q508.64-20.7 505.69-21.05L505.69-21.05Q502.59-21.45 500.24-19.73 497.89-18 497.04-15.25L497.04-15.25ZM538.49 0L538.49 0Q537.49 0 536.74-0.68 535.99-1.35 535.99-2.5L535.99-2.5 535.89-12.7Q535.84-16.15 535.84-21.3L535.84-21.3 535.84-24.25Q535.84-25.4 536.54-26.05 537.24-26.7 538.24-26.7L538.24-26.7Q539.29-26.7 540.06-26.03 540.84-25.35 540.84-24.15L540.84-24.15 540.84-22.65Q541.39-23.85 542.89-24.7L542.89-24.7Q544.94-25.95 547.39-25.95L547.39-25.95Q549.24-25.95 550.24-25.35 551.24-24.75 551.24-23.2L551.24-23.2Q551.24-22.2 550.64-21.53 550.04-20.85 548.89-20.85L548.89-20.85Q544.69-20.85 543.09-19.7L543.09-19.7Q542.19-19.1 541.51-18.25 540.84-17.4 540.84-16.6L540.84-16.6 540.94-10.35 540.99-2.5Q540.99-1.35 540.24-0.68 539.49 0 538.49 0L538.49 0ZM553.93-2.4L553.93-2.4Q553.83-6.15 553.96-13.9 554.08-21.65 554.08-24.05L554.08-24.05Q554.08-25.1 554.81-25.83 555.53-26.55 556.58-26.55 557.63-26.55 558.36-25.83 559.08-25.1 559.08-24.05L559.08-24.05Q559.08-21.65 558.96-13.95 558.83-6.25 558.93-2.5L558.93-2.5Q558.93-1.45 558.23-0.7 557.53 0.05 556.48 0.05 555.43 0.05 554.68-0.65 553.93-1.35 553.93-2.4L553.93-2.4ZM558.58-35.2L558.58-35.2Q559.43-34.35 559.43-33.1 559.43-31.85 558.58-31 557.73-30.15 556.48-30.15 555.23-30.15 554.38-31 553.53-31.85 553.53-33.1 553.53-34.35 554.38-35.2 555.23-36.05 556.51-36.08 557.78-36.1 558.58-35.2L558.58-35.2ZM585.23 0L585.23 0Q584.43 0 583.78-0.45 583.13-0.9 582.88-2.15L582.88-2.15Q580.73-0.6 578.38-0.15L578.38-0.15Q575.13 0.45 572.43-0.5 569.73-1.45 567.88-3.65L567.88-3.65Q564.53-7.55 564.58-13.55L564.58-13.55Q564.63-18.95 568.08-22.85L568.08-22.85Q572.23-27.5 578.98-26.3L578.98-26.3Q581.28-25.9 582.48-25.25L582.48-25.25 582.38-33.25Q582.38-34.3 583.11-35.05 583.83-35.8 584.86-35.8 585.88-35.8 586.63-35.08 587.38-34.35 587.38-33.35L587.38-33.35Q587.73-10.55 587.73-2.5L587.73-2.5Q587.73-1.45 587.01-0.73 586.28 0 585.23 0L585.23 0ZM577.48-5.05L577.48-5.05Q578.43-5.25 579.48-5.75 580.53-6.25 580.96-6.58 581.38-6.9 581.61-7.15 581.83-7.4 582.13-7.73 582.43-8.05 582.68-8.75L582.68-8.75Q582.68-15.1 582.58-18.85L582.58-18.85Q582.53-18.85 582.48-18.9L582.48-18.9Q580.38-20.7 580.38-20.75L580.38-20.75Q579.83-21.1 578.08-21.4L578.08-21.4Q574.08-22.1 571.83-19.5L571.83-19.5Q569.58-17.05 569.58-13.55L569.58-13.55Q569.53-9.4 571.68-6.88 573.83-4.35 577.48-5.05L577.48-5.05ZM606.58 0.25L606.58 0.25Q602.88 0 600.13-1.25 597.38-2.5 595.93-4.4 594.48-6.3 593.83-7.9 593.18-9.5 593.03-11.08 592.88-12.65 593.18-15.15L593.18-15.15Q593.53-17.25 594.65-19.3 595.78-21.35 597.65-22.98 599.53-24.6 602.18-25.48 604.83-26.35 607.83-26L607.83-26Q610.73-25.65 612.78-24.43 614.83-23.2 616.28-21.3L616.28-21.3Q617.53-19.7 617.8-18.9 618.08-18.1 618.3-17.4 618.53-16.7 618.68-16.2 618.83-15.7 618.95-15.18 619.08-14.65 619.13-13.95L619.13-13.95Q619.18-13 618.78-12.2 618.38-11.4 617.58-10.95L617.58-10.95Q616.93-10.7 616.18-10.7L616.18-10.7 607.63-10.55Q598.63-10.5 598.63-10.35L598.63-10.35 598.48-10.35Q599.13-7.8 601.2-6.35 603.28-4.9 606.88-4.65L606.88-4.65Q608.83-4.55 610.13-4.85L610.13-4.85Q611.58-5.25 612.23-5.58 612.88-5.9 613.83-6.45L613.83-6.45Q614.78-6.8 615.73-6.35 616.68-5.9 617.03-4.95 617.38-4 616.95-3.1 616.53-2.2 615.63-1.7L615.63-1.7Q614.83-1.25 613.98-0.93 613.13-0.6 611.48-0.15 609.83 0.3 606.58 0.25L606.58 0.25ZM598.58-15.25L598.58-15.25Q601.48-15.4 613.63-15.55L613.63-15.55Q613.18-17.05 612.18-18.4L612.18-18.4Q610.18-20.7 607.23-21.05L607.23-21.05Q604.13-21.45 601.78-19.73 599.43-18 598.58-15.25L598.58-15.25ZM651.27-0.8L651.27-0.8Q649.47-0.1 647.2 0 644.92 0.1 642.97-0.53 641.02-1.15 639.52-2.45L639.52-2.45Q636.92-4.6 636.17-7.8 635.42-11 636.12-13.55 636.82-16.1 638.25-18.53 639.67-20.95 641.35-22.63 643.02-24.3 645.22-25.45 647.42-26.6 649.82-26.58 652.22-26.55 654.87-25.25L654.87-25.25Q655.27-25.05 655.75-24.65 656.22-24.25 656.57-23.95L656.57-23.95 657.22-23.3Q657.52-23 657.52-22.95L657.52-22.95Q658.32-22.25 658.37-21.15L658.37-21.15Q659.02-18.15 659.22-14.85 659.42-11.55 659.35-8.65 659.27-5.75 659.42-2.5L659.42-2.5Q659.47-1.5 658.77-0.75 658.07 0 657.02 0.05 655.97 0.1 655.22-0.6 654.47-1.3 654.42-2.3L654.42-2.3 654.42-3.05Q652.92-1.5 651.27-0.8L651.27-0.8ZM649.02-5.3L649.02-5.3Q649.77-5.5 650.22-5.7 650.67-5.9 651.35-6.3 652.02-6.7 652.77-7.3 653.52-7.9 654.12-8.8L654.12-8.8Q654.22-8.9 654.37-9L654.37-9Q654.37-15.75 653.52-19.85L653.52-19.85Q653.37-20.05 653.2-20.23 653.02-20.4 652.95-20.5 652.87-20.6 652.75-20.68 652.62-20.75 652.47-20.85L652.47-20.85Q650.07-22.15 647.42-20.93 644.77-19.7 642.77-16.35L642.77-16.35Q640.77-12.95 640.8-10.43 640.82-7.9 642.72-6.25L642.72-6.25Q643.87-5.3 645.57-5.05 647.27-4.8 649.02-5.3L649.02-5.3ZM673.97-0.15L673.97-0.15Q673.67-0.25 672.75-0.45 671.82-0.65 671.15-0.9 670.47-1.15 669.6-1.63 668.72-2.1 668.02-2.93 667.32-3.75 666.82-4.9L666.82-4.9Q666.27-6.25 666.12-10.2L666.12-10.2Q665.97-13.25 666.07-18.05L666.07-18.05Q666.07-18.95 666.12-21.05L666.12-21.05 665.72-21Q664.67-20.9 663.87-21.55 663.07-22.2 662.95-23.23 662.82-24.25 663.47-25.05 664.12-25.85 665.12-26L665.12-26 666.27-26.1Q666.32-28.75 666.42-31.45L666.42-31.45Q666.47-32.5 667.22-33.2 667.97-33.9 669.02-33.85 670.07-33.8 670.77-33.05 671.47-32.3 671.42-31.25L671.42-31.25 671.27-26.5 672.92-26.6Q673.97-26.65 674.75-26 675.52-25.35 675.6-24.3 675.67-23.25 675.02-22.48 674.37-21.7 673.32-21.6L673.32-21.6 671.12-21.5Q671.07-19.1 671.07-18L671.07-18Q670.97-13.3 671.12-10.35L671.12-10.35Q671.22-7.35 671.42-6.9 671.62-6.45 671.72-6.28 671.82-6.1 672.1-5.93 672.37-5.75 672.67-5.7 672.97-5.65 673.8-5.43 674.62-5.2 675.57-4.85L675.57-4.85Q676.52-4.55 677-3.63 677.47-2.7 677.15-1.73 676.82-0.75 675.9-0.28 674.97 0.2 673.97-0.15L673.97-0.15ZM708.42-0.8L708.42-0.8Q706.62-0.1 704.34 0 702.07 0.1 700.12-0.53 698.17-1.15 696.67-2.45L696.67-2.45Q694.07-4.6 693.32-7.8 692.57-11 693.27-13.55 693.97-16.1 695.39-18.53 696.82-20.95 698.49-22.63 700.17-24.3 702.37-25.45 704.57-26.6 706.97-26.58 709.37-26.55 712.02-25.25L712.02-25.25Q712.42-25.05 712.89-24.65 713.37-24.25 713.72-23.95L713.72-23.95 714.37-23.3Q714.67-23 714.67-22.95L714.67-22.95Q715.47-22.25 715.52-21.15L715.52-21.15Q716.17-18.15 716.37-14.85 716.57-11.55 716.49-8.65 716.42-5.75 716.57-2.5L716.57-2.5Q716.62-1.5 715.92-0.75 715.22 0 714.17 0.05 713.12 0.1 712.37-0.6 711.62-1.3 711.57-2.3L711.57-2.3 711.57-3.05Q710.07-1.5 708.42-0.8L708.42-0.8ZM706.17-5.3L706.17-5.3Q706.92-5.5 707.37-5.7 707.82-5.9 708.49-6.3 709.17-6.7 709.92-7.3 710.67-7.9 711.27-8.8L711.27-8.8Q711.37-8.9 711.52-9L711.52-9Q711.52-15.75 710.67-19.85L710.67-19.85Q710.52-20.05 710.34-20.23 710.17-20.4 710.09-20.5 710.02-20.6 709.89-20.68 709.77-20.75 709.62-20.85L709.62-20.85Q707.22-22.15 704.57-20.93 701.92-19.7 699.92-16.35L699.92-16.35Q697.92-12.95 697.94-10.43 697.97-7.9 699.87-6.25L699.87-6.25Q701.02-5.3 702.72-5.05 704.42-4.8 706.17-5.3L706.17-5.3ZM744.61-0.15L744.61-0.15Q744.31-0.25 743.39-0.45 742.46-0.65 741.79-0.9 741.11-1.15 740.24-1.63 739.36-2.1 738.66-2.93 737.96-3.75 737.46-4.9L737.46-4.9Q736.91-6.25 736.76-10.2L736.76-10.2Q736.61-13.25 736.71-18.05L736.71-18.05Q736.71-18.95 736.76-21.05L736.76-21.05 736.36-21Q735.31-20.9 734.51-21.55 733.71-22.2 733.59-23.23 733.46-24.25 734.11-25.05 734.76-25.85 735.76-26L735.76-26 736.91-26.1Q736.96-28.75 737.06-31.45L737.06-31.45Q737.11-32.5 737.86-33.2 738.61-33.9 739.66-33.85 740.71-33.8 741.41-33.05 742.11-32.3 742.06-31.25L742.06-31.25 741.91-26.5 743.56-26.6Q744.61-26.65 745.39-26 746.16-25.35 746.24-24.3 746.31-23.25 745.66-22.48 745.01-21.7 743.96-21.6L743.96-21.6 741.76-21.5Q741.71-19.1 741.71-18L741.71-18Q741.61-13.3 741.76-10.35L741.76-10.35Q741.86-7.35 742.06-6.9 742.26-6.45 742.36-6.28 742.46-6.1 742.74-5.93 743.01-5.75 743.31-5.7 743.61-5.65 744.44-5.43 745.26-5.2 746.21-4.85L746.21-4.85Q747.16-4.55 747.64-3.63 748.11-2.7 747.79-1.73 747.46-0.75 746.54-0.28 745.61 0.2 744.61-0.15L744.61-0.15ZM751.71-2.4L751.71-2.4Q751.61-6.15 751.73-13.9 751.86-21.65 751.86-24.05L751.86-24.05Q751.86-25.1 752.58-25.83 753.31-26.55 754.36-26.55 755.41-26.55 756.13-25.83 756.86-25.1 756.86-24.05L756.86-24.05Q756.86-21.65 756.73-13.95 756.61-6.25 756.71-2.5L756.71-2.5Q756.71-1.45 756.01-0.7 755.31 0.05 754.26 0.05 753.21 0.05 752.46-0.65 751.71-1.35 751.71-2.4L751.71-2.4ZM756.36-35.2L756.36-35.2Q757.21-34.35 757.21-33.1 757.21-31.85 756.36-31 755.51-30.15 754.26-30.15 753.01-30.15 752.16-31 751.31-31.85 751.31-33.1 751.31-34.35 752.16-35.2 753.01-36.05 754.28-36.08 755.56-36.1 756.36-35.2L756.36-35.2ZM793.71-2.2L793.71-2.2Q793.66-3.1 793.58-3.88 793.51-4.65 793.48-5.03 793.46-5.4 793.43-5.68 793.41-5.95 793.41-6.3L793.41-6.3 793.41-9.15Q793.41-9.95 793.48-11.98 793.56-14 793.53-15.4 793.51-16.8 793.26-18.05L793.26-18.05Q792.96-19.8 792.21-20.58 791.46-21.35 789.91-21.35L789.91-21.35Q786.46-21.3 783.01-17.15L783.01-17.15Q783.16-15.65 783.16-11.35L783.16-11.35Q783.16-8.2 783.31-2.55L783.31-2.55Q783.36-1.55 782.63-0.8 781.91-0.05 780.88 0 779.86 0.05 779.11-0.68 778.36-1.4 778.31-2.45L778.31-2.45Q778.16-8.1 778.16-11.35L778.16-11.35 778.16-13.85Q778.16-14.1 778.13-14.9 778.11-15.7 778.08-16.07 778.06-16.45 777.98-17.07 777.91-17.7 777.83-18.18 777.76-18.65 777.61-19.1L777.61-19.1Q777.21-20.5 776.51-21.05L776.51-21.05Q775.76-21.65 774.26-21.5L774.26-21.5Q772.61-21.35 771.41-20.6L771.41-20.6Q770.26-19.85 769.06-18.2L769.06-18.2Q768.81-17.9 768.51-17.65L768.51-17.65Q768.71-7.65 768.51-2.4L768.51-2.4Q768.46-1.35 767.71-0.65 766.96 0.05 765.91 0 764.86-0.05 764.16-0.8 763.46-1.55 763.51-2.6L763.51-2.6Q763.61-8.15 763.61-9.73 763.61-11.3 763.48-16.98 763.36-22.65 763.36-24.25L763.36-24.25Q763.36-25 764.08-25.75 764.81-26.5 765.81-26.5 766.81-26.5 767.61-25.88 768.41-25.25 768.36-23.55L768.36-23.55Q770.61-26.2 773.86-26.5L773.86-26.5Q777.31-26.8 779.61-24.95L779.61-24.95Q780.81-24 781.76-22.3L781.76-22.3Q784.86-26.2 789.91-26.5L789.91-26.5Q793.61-26.55 795.86-24.2L795.86-24.2Q797.61-22.15 798.21-18.95L798.21-18.95Q798.46-17.45 798.51-15.68 798.56-13.9 798.48-11.68 798.41-9.45 798.41-9.15L798.41-9.15 798.41-6.4Q798.41-6.15 798.43-5.9 798.46-5.65 798.48-5.33 798.51-5 798.56-4.25 798.61-3.5 798.71-2.6L798.71-2.6Q798.76-1.55 798.08-0.78 797.41 0 796.38 0.08 795.36 0.15 794.58-0.53 793.81-1.2 793.71-2.2L793.71-2.2ZM817.05 0.25L817.05 0.25Q813.35 0 810.6-1.25 807.85-2.5 806.4-4.4 804.95-6.3 804.3-7.9 803.65-9.5 803.5-11.08 803.35-12.65 803.65-15.15L803.65-15.15Q804-17.25 805.13-19.3 806.25-21.35 808.13-22.98 810-24.6 812.65-25.48 815.3-26.35 818.3-26L818.3-26Q821.2-25.65 823.25-24.43 825.3-23.2 826.75-21.3L826.75-21.3Q828-19.7 828.28-18.9 828.55-18.1 828.78-17.4 829-16.7 829.15-16.2 829.3-15.7 829.43-15.18 829.55-14.65 829.6-13.95L829.6-13.95Q829.65-13 829.25-12.2 828.85-11.4 828.05-10.95L828.05-10.95Q827.4-10.7 826.65-10.7L826.65-10.7 818.1-10.55Q809.1-10.5 809.1-10.35L809.1-10.35 808.95-10.35Q809.6-7.8 811.68-6.35 813.75-4.9 817.35-4.65L817.35-4.65Q819.3-4.55 820.6-4.85L820.6-4.85Q822.05-5.25 822.7-5.58 823.35-5.9 824.3-6.45L824.3-6.45Q825.25-6.8 826.2-6.35 827.15-5.9 827.5-4.95 827.85-4 827.43-3.1 827-2.2 826.1-1.7L826.1-1.7Q825.3-1.25 824.45-0.93 823.6-0.6 821.95-0.15 820.3 0.3 817.05 0.25L817.05 0.25ZM809.05-15.25L809.05-15.25Q811.95-15.4 824.1-15.55L824.1-15.55Q823.65-17.05 822.65-18.4L822.65-18.4Q820.65-20.7 817.7-21.05L817.7-21.05Q814.6-21.45 812.25-19.73 809.9-18 809.05-15.25L809.05-15.25Z" opacity="1" transform="matrix(1,0,0,1,0,0)" fill="#f9cc0b" class="undefined-text-1" data-fill-palette-color="secondary" id="text-1"></path></svg></g></svg></g></svg></g></svg></g><g></g></svg></g><defs></defs></svg><rect width="395.52" height="122.12740846035503" fill="none" stroke="none" visibility="hidden"></rect></g></svg></g></svg>